<?xml version="1.0" standalone="no"?><!DOCTYPE svg PUBLIC "-//W3C//DTD SVG 1.1//EN" "http://www.w3.org/Graphics/SVG/1.1/DTD/svg11.dtd"><svg t="1534921115050" class="icon" style="" viewBox="0 0 1024 1024" version="1.1" xmlns="http://www.w3.org/2000/svg" p-id="24050" xmlns:xlink="http://www.w3.org/1999/xlink" width="200" height="200"><defs><style type="text/css"></style></defs><path d="M242.57422222 1015.6562963c-32.03739497 0-67.55426608-9.34009363-95.00778192-24.98742045C109.44026548 968.94126459 88.44325925 936.86867437 88.44325925 900.36148148c0-1.25003852 0.06189511-2.50007703 0.18689897-3.7440474l36.38947081-363.89470816c-32.735232-21.62202548-60.15597985-54.50046578-80.20028681-96.46171022C22.86235497 390.29600711 10.77096297 334.43991703 10.77096297 278.98311111c0-71.29467259 23.68398222-138.61349452 66.68894814-189.55438459 21.21424592-25.12941511 45.98199941-44.95405511 73.61513244-58.92171852C180.1706003 15.80145778 210.95431585 8.3437037 242.57422222 8.3437037s62.40362192 7.45775408 91.49917867 22.1633043c27.63313303 13.96766341 52.40088652 33.79230341 73.61513244 58.92171852C450.69349925 140.36961659 474.37748148 207.68843852 474.37748148 278.98311111c0 57.50905363-11.47729541 112.28622697-33.18912948 158.40658014-19.92658489 42.32654697-47.61069037 75.05449718-80.98671882 96.05999883l36.31665304 363.167744c0.12379022 1.23790222 0.18568533 2.47944533 0.18689896 3.72220207 0.02184533 36.96594489-21.02006518 69.206016-59.24818488 90.78313718C310.23771497 1006.48489718 274.76696178 1015.6562963 242.57422222 1015.6562963zM163.74655052 901.6564243C165.54514963 921.796608 208.84988208 940.41125925 242.57422222 940.41125925c19.22389333 0 41.95032178-5.81571318 57.89862875-14.81720414 9.19324445-5.18826667 20.07950222-13.47007525 20.93389748-23.89272652l-38.59584948-385.95849481c-1.64325452-16.4289043 7.61673955-32.00826785 22.83201421-38.4162323 34.6151443-14.57933275 55.79540859-47.19441541 67.46688474-71.98765511C389.89065482 369.69464415 399.13244445 324.82068859 399.13244445 278.98311111c0-53.55140741-17.38038992-103.63183408-48.93961482-141.01526756C320.58876208 102.90122903 282.36913778 83.58874075 242.57422222 83.58874075s-78.01453985 19.3124883-107.6186074 54.3791028C103.39638992 175.35127703 86.016 225.4317037 86.016 278.98311111c0 91.45184711 38.90411141 173.21771615 94.60607052 198.836224 14.59025541 6.71015822 23.31382518 21.94363733 21.71547496 37.9247123L163.74655052 901.6564243zM774.144 1015.6562963c-32.03739497 0-67.5554797-9.34009363-95.00778192-24.98742045C641.01004325 968.94126459 620.01303703 936.86867437 620.01303703 900.36148148c0-1.25003852 0.06310875-2.50007703 0.18689897-3.7440474l35.79843318-357.99161363c-21.96426903-11.47365452-43.92611082-31.51189333-62.95946429-58.15834548C560.34614992 434.69786075 542.34074075 376.93394489 542.34074075 317.81925925L542.34074075 84.80237037c0-20.77855289 16.84396563-37.62251852 37.6225185-37.62251852s37.62251852 16.84396563 37.62251853 37.62251852l0 233.01688888c0 41.96488533 12.21396859 83.02804385 34.39183644 115.62734934 19.628032 28.84918992 39.57767585 39.98424178 44.96012326 40.93451378 10.45906015 0.12985837 20.4023277 4.6081517 27.43045689 12.37416771 7.13250133 7.88131082 10.59741392 18.41197511 9.53912888 28.98875733l-38.59099495 385.91237689C697.11371378 921.796608 740.42087348 940.41125925 774.144 940.41125925c19.22389333 0 41.95032178-5.81571318 57.89862875-14.81720414 9.19324445-5.18826667 20.07950222-13.47007525 20.93389747-23.89272652l-38.59584947-385.95849481c-1.05828503-10.57678222 2.40662755-21.10744652 9.53912888-28.98875733 7.02812918-7.766016 16.97018311-12.24430933 27.43045689-12.3741677 5.38244741-0.950272 25.33209125-12.08411022 44.96012326-40.93451378C918.48825363 400.84730311 930.70222222 359.78414459 930.70222222 317.81925925L930.70222222 84.80237037c0-20.77855289 16.84396563-37.62251852 37.62251853-37.62251852s37.62251852 16.84396563 37.6225185 37.62251852l0 233.01688888c0 59.11468563-18.00540918 116.87860148-50.69816414 162.64942934-19.03335348 26.64645215-40.99519525 46.68469097-62.95946429 58.15834549l35.79843318 357.99161362c0.12500385 1.23790222 0.18568533 2.47944533 0.18689897 3.72220208 0.02184533 36.96594489-21.02006518 69.206016-59.24697127 90.78192355C841.80749275 1006.48368355 806.33673955 1015.6562963 774.144 1015.6562963zM715.28296297 355.44177778c-20.77855289 0-37.62251852-16.84396563-37.62251852-37.62251853L677.66044445 84.80237037c0-20.77855289 16.84396563-37.62251852 37.62251852-37.62251852s37.62251852 16.84396563 37.62251851 37.62251852l0 233.01688888C752.90548148 338.59781215 736.06151585 355.44177778 715.28296297 355.44177778zM831.79140741 355.44177778c-20.77855289 0-37.62251852-16.84396563-37.62251852-37.62251853L794.16888889 84.80237037c0-20.77855289 16.84396563-37.62251852 37.62251852-37.62251852s37.62251852 16.84396563 37.62251851 37.62251852l0 233.01688888C869.41392592 338.59781215 852.5699603 355.44177778 831.79140741 355.44177778z" p-id="24051"></path></svg>