<?xml version="1.0" standalone="no"?><!DOCTYPE svg PUBLIC "-//W3C//DTD SVG 1.1//EN" "http://www.w3.org/Graphics/SVG/1.1/DTD/svg11.dtd"><svg t="1534902707692" class="icon" style="" viewBox="0 0 1024 1024" version="1.1" xmlns="http://www.w3.org/2000/svg" p-id="24020" xmlns:xlink="http://www.w3.org/1999/xlink" width="200" height="200"><defs><style type="text/css"></style></defs><path d="M204.8 477.86666667c-56.5248 0-102.4-61.09866667-102.4-136.53333334 0-68.47146667 37.81973333-125.20106667 87.10826667-135.03146666C235.9296 86.15253333 362.76906667 0 512 0c149.23093333 0 276.13866667 86.2208 322.49173333 206.30186667C883.78026667 216.13226667 921.6 272.86186667 921.6 341.33333333c0 75.43466667-45.8752 136.53333333-102.4 136.53333334H785.06666667V307.2c0-130.2528-120.76373333-238.93333333-273.06666667-238.93333333S238.93333333 176.9472 238.93333333 307.2v170.66666667h-34.13333333z m-168.7552 546.13333333A275.93386667 275.93386667 0 0 1 34.13333333 989.86666667c0-150.18666667 94.34453333-281.53173333 234.97386667-352.80213334A407.7568 407.7568 0 0 0 512 716.8a407.7568 407.7568 0 0 0 242.8928-79.73546667C895.52213333 708.33493333 989.86666667 839.68 989.86666667 989.86666667c0 12.4928-0.68266667 23.89333333-1.91146667 34.13333333H36.0448zM512 614.4a238.93333333 238.93333333 0 1 1 0-477.86666667 238.93333333 238.93333333 0 0 1 0 477.86666667z" p-id="24021"></path></svg>