<?xml version="1.0" standalone="no"?><!DOCTYPE svg PUBLIC "-//W3C//DTD SVG 1.1//EN" "http://www.w3.org/Graphics/SVG/1.1/DTD/svg11.dtd"><svg t="1534905153595" class="icon" style="" viewBox="0 0 1024 1024" version="1.1" xmlns="http://www.w3.org/2000/svg" p-id="24021" xmlns:xlink="http://www.w3.org/1999/xlink" width="200" height="200"><defs><style type="text/css"></style></defs><path d="M792.91583467 573.79459627c21.3360704-42.10891413 32.15309973-86.8898848 32.15309973-133.09638934 0-46.1901312-10.81921173-90.95909547-32.15309973-133.06146026-20.42792107-40.31444373-49.5771392-76.44069973-86.63992427-107.37783894-75.34917333-62.89703787-175.26642773-97.53554347-281.3464416-97.53554346-106.0778304 0-205.9929024 34.6385056-281.34207573 97.53554346-37.06278613 30.9371392-66.21200427 67.0633952-86.63992427 107.37783894-21.333888 42.1023648-32.15200747 86.871328-32.15200747 133.07565013 0.04911893 81.93326187 35.09258027 160.8833824 98.69365334 222.40400427 1.2399744 2.35551467 7.72691733 17.5495648 6.19987093 75.16143146-0.8994176 33.91918933-4.15762453 64.83122347-4.20674347 65.29512214l-5.4019648 50.5638784 42.54989014-27.8470272c0.2663328-0.17464427 26.95743253-17.6128736 57.22219093-34.77494614 50.01484053-28.36331947 67.19546987-31.85183787 70.80405653-32.27753386 42.99850773 12.91494293 88.1626048 19.4630112 134.27196267 19.4630112 106.0876544 0 206.0049088-34.63413973 281.3464416-97.5224448C743.33869547 650.24293653 772.49009707 614.11340587 792.91583467 573.79459627zM424.92946773 730.5181696c-41.96155733 0-82.99095147-6.0197696-121.94535253-17.8901216-3.5518272-1.08279467-7.4442112-1.63183253-11.5723648-1.63183253-12.6933632 0-35.01071573 4.39339413-95.41907307 38.6596896-6.5873632 3.73738667-12.9727936 7.46058453-18.96745813 11.02223573 0.41368853-8.0729312 0.75097067-16.70690667 0.9321632-25.5264416 1.5390528-74.743376-9.44061333-95.57843627-20.38098453-106.0985696-54.51193067-52.45331093-84.55729173-119.3497024-84.59877014-188.35492373 0-159.7929472 157.88495787-289.7926752 351.9507488-289.7926752 194.0690656 0 351.95620693 130.0008192 351.95620694 289.7926752C776.88676587 600.5064352 618.99853333 730.5181696 424.92946773 730.5181696z" p-id="24022"></path><path d="M996.7136768 505.88963413c0-48.44195093-11.85507093-95.20731733-35.23993707-138.99718186-22.38502827-41.91789653-54.14954347-78.97959147-94.41268586-110.15686614-10.52122453-8.14497173-25.65087573-6.22061013-33.79693867 4.298432s-6.22061013 25.65196693 4.298432 33.79802987c34.85681067 26.99017813 62.24648853 58.8703968 81.41042133 94.75651627 19.61582507 36.73096213 29.5607232 75.86109973 29.5607232 116.28687893-0.04038613 69.01831893-30.084656 135.91689387-84.58458026 188.35492373-10.94910293 10.51685867-21.9353184 31.3453696-20.39626667 106.08983787 0.1811936 8.81626027 0.52065813 17.44914453 0.9321632 25.52098347-7.49987947-4.45561173-15.614288-9.1644576-23.96228373-13.83400854-20.15285547-11.26673813-37.52341013-19.95310613-51.63466667-25.81787946-23.10543573-9.60106773-38.1695936-12.11048747-50.36194667-8.39056534-38.93038827 11.8714432-79.95869013 17.8901216-121.94426133 17.8901216-20.45084267 0-40.95189547-1.46046293-60.93119893-4.3410016-13.1659936-1.89489067-25.38235947 7.23791253-27.281616 20.4060896-1.89707307 13.16817707 7.23791253 25.38345173 20.4060896 27.281616 22.24858667 3.2079968 45.06149333 4.8354624 67.80672426 4.8354624 46.13228053 0 91.30074347-6.54915947 134.27523734-19.4641024 3.6140448 0.4267872 20.79249067 3.9142144 70.80405653 32.2742592 30.26257493 17.16207253 56.95149227 34.59921067 57.21782507 34.77385494l42.5520736 27.85030186-5.4019648-50.56715306c-0.0338368-0.30562773-3.283312-31.01027093-4.20019414-64.99167787-1.55869973-57.83235413 4.94352427-73.0733408 6.18677334-75.43431253C961.62109653 666.79484693 996.66674133 587.8436352 996.7136768 505.88963413z" p-id="24023"></path><path d="M232.81532693 389.19998187c-25.4085568 0.14189867-45.9227072 20.84706667-45.82883626 46.25344 0.1408064 25.40637333 20.843792 45.95108693 46.2512576 45.82992746 25.4085568-0.11461013 45.9227072-20.79467307 45.82883626-46.25344C278.97380373 409.6442752 258.22388267 389.08537173 232.81532693 389.19998187z" p-id="24024"></path><path d="M425.777584 389.19998187c-25.40746453 0.14189867-45.97182613 20.84706667-45.82992747 46.25344 0.0949632 25.40637333 20.79794773 45.95108693 46.20650454 45.82992746 25.4085568-0.11461013 45.92489067-20.79467307 45.82992746-46.25344C471.8902176 409.6442752 451.1850496 389.08537173 425.777584 389.19998187z" p-id="24025"></path><path d="M608.86152533 389.19998187c-25.40746453 0.14189867-45.9227072 20.84706667-45.82883626 46.25344 0.1408064 25.40637333 20.79685653 45.95108693 46.20650453 45.82992746 25.45440107-0.11461013 45.96964373-20.79467307 45.82883627-46.25344C654.97415893 409.6442752 634.26899093 389.08537173 608.86152533 389.19998187z" p-id="24026"></path></svg>