<?xml version="1.0" standalone="no"?><!DOCTYPE svg PUBLIC "-//W3C//DTD SVG 1.1//EN" "http://www.w3.org/Graphics/SVG/1.1/DTD/svg11.dtd"><svg t="1535102644257" class="icon" style="" viewBox="0 0 1024 1024" version="1.1" xmlns="http://www.w3.org/2000/svg" p-id="24227" xmlns:xlink="http://www.w3.org/1999/xlink" width="200" height="200"><defs><style type="text/css"></style></defs><path d="M853.33333333 34.13333333H170.66666667c-75.09333333 0-136.53333333 61.44-136.53333334 136.53333334v682.66666666c0 75.09333333 61.44 136.53333333 136.53333334 136.53333334h682.66666666c75.09333333 0 136.53333333-61.44 136.53333334-136.53333334V170.66666667c0-75.09333333-61.44-136.53333333-136.53333334-136.53333334zM307.2 819.2c0 18.77333333-15.36 34.13333333-34.13333333 34.13333333h-68.26666667c-18.77333333 0-34.13333333-15.36-34.13333333-34.13333333V477.86666667c0-18.77333333 15.36-34.13333333 34.13333333-34.13333334h68.26666667c18.77333333 0 34.13333333 15.36 34.13333333 34.13333334v341.33333333z m273.70666667 0c0 18.77333333-15.36 34.13333333-34.13333334 34.13333333h-68.26666666c-18.77333333 0-34.13333333-15.36-34.13333334-34.13333333V341.33333333c0-18.77333333 15.36-34.13333333 34.13333334-34.13333333h68.26666666c18.77333333 0 34.13333333 15.36 34.13333334 34.13333333v477.86666667z m272.42666666 0c0 18.77333333-15.36 34.13333333-34.13333333 34.13333333h-68.26666667c-18.77333333 0-34.13333333-15.36-34.13333333-34.13333333V409.6c0-18.77333333 15.36-34.13333333 34.13333333-34.13333333h68.26666667c18.77333333 0 34.13333333 15.36 34.13333333 34.13333333v409.6z" fill="" p-id="24228"></path></svg>