<?xml version="1.0" standalone="no"?><!DOCTYPE svg PUBLIC "-//W3C//DTD SVG 1.1//EN" "http://www.w3.org/Graphics/SVG/1.1/DTD/svg11.dtd"><svg t="1535102651280" class="icon" style="" viewBox="0 0 1024 1024" version="1.1" xmlns="http://www.w3.org/2000/svg" p-id="24342" xmlns:xlink="http://www.w3.org/1999/xlink" width="200" height="200"><defs><style type="text/css"></style></defs><path d="M42.50074327 993.61613495c-19.83232631-19.57600773-42.89193655-63.48804045 25.4907531-137.63789812 63.96960869-69.43514928 184.03156069-173.31796195 289.95974384-264.97386065 28.90186145-25.00659579 56.46517033-48.85716891 81.19991309-70.55233581l-38.66656363-37.41603966c-17.66656379-8.87794347-38.05165795-9.82554548-59.58241849-10.8275181-26.70373547-1.24275675-56.97133479-2.65121438-85.07964428-20.23363319-15.73511269-9.8190728-29.3497717-20.70743419-44.12951515-35.29558597-6.82868939-6.74066078-13.43601271-13.76870907-20.43169753-21.20842052-2.35476512-2.50363701-4.76390083-5.06682279-7.25459248-7.69473546-4.7561336-5.02539757-8.8352237-9.20675618-12.77838729-13.25089376-14.7240783-15.09690533-26.35421013-27.02219188-54.16995397-63.56700729-11.35310064-14.9169645-18.81223017-24.19880391-24.25835266-30.97571175-13.36740219-16.63352225-15.97848589-20.16113904-29.78732563-47.19239271-1.7049069-3.33473058-3.26223645-6.37042284-4.6914067-9.15885826-16.60633695-32.36992948-17.35975822-34.39976549-26.84742922-72.41647092-11.52527423-46.17359107 1.07187769-74.57058259 13.66773506-90.26297553 14.06904194-17.52675365 31.2851064-23.33793597 33.2023176-23.94248534l11.04629508-3.48619156 8.31611385 8.0636789c0 0 241.04690978 233.75865932 420.18382128 407.42355753 14.91178635-14.5078904 21.1035629-21.79872995 23.61755623-25.45062241 1.86154604-2.71076315 4.70176301-9.93817031 2.64991984-27.62674127-1.64794722-14.20885207-5.77622977-29.41061499-9.09283683-41.62587811-1.77999013-6.55295273-3.33084697-12.26186651-4.22925653-16.87430637-11.06441861-42.33787417-6.08821349-106.55215059 79.30082545-173.39045611 36.71439991-28.76334587 79.03285602-57.53575348 119.95838893-85.36055909 34.73893452-23.61885076 67.55030155-45.9276288 95.50326645-67.16970729l13.34280597-10.13882375 43.1133026 42.15922789L631.994636 297.25681335l17.24972249 16.91055344L899.27406933 60.47929078l17.3623473 16.96751313 53.44501254 52.52589037L720.05819102 383.66335937l20.46665007 20.05239782L990.55196286 150.00826311l42.97996516 42.07119929-9.84366901 13.56028839c-20.60904928 28.39440245-42.17864596 61.6562688-65.01559563 96.87029886-26.93934143 41.54302768-54.7965105 84.49969115-82.77795523 121.87042198-65.01300654 86.78714027-129.11983629 93.13814503-171.68684373 82.99155406-4.98785597-0.86734064-11.05017869-2.46997902-18.62452212-4.47392427-17.10732325-4.52311671-57.16810462-15.11502885-69.43644381-6.28368878-3.60140547 2.5942547-10.7627912 8.81451109-24.94445796 23.46609525 72.91745723 70.67790602 112.0487601 108.58328115 116.38416877 112.73615993l111.0545547 107.66933712 0.3210455-0.2977438 13.21982483 13.15121429c47.38139529 47.13543301 76.41529964 79.27364014 100.21538576 110.93416265 22.19744773 29.44815661 32.91622463 57.45031395 31.84305241 83.20774195-0.91523856 21.97219808-10.59320667 37.76556499-19.75724311 45.6505976-14.8625939 15.16551585-33.19972851 23.32628512-53.09937082 23.61755624-25.53476741 0.37412157-51.34656601-12.13241268-76.71304344-37.17137193-0.00129454-0.00129454 0 0-0.00129454-0.00129455-3.56127478-3.51467141-7.16138572-7.33226477-10.70194789-11.34144979-78.74546853-89.22605037-222.2204397-268.68789097-293.58574553-358.62464285-21.86345687 25.00400672-45.64671399 52.50258868-70.54715766 81.2918253-88.97749902 102.87695645-189.82720853 219.48119671-255.70496663 282.8850922-71.26821547 68.53156157-117.59326752 43.54050023-138.86641493 22.54308946-0.47380101-0.46732832-0.92559486-0.92171125-1.35538158-1.35926518C43.44834528 994.53914075 42.97972243 994.08864142 42.50074327 993.61613495zM471.55991893 497.77302439l21.31068904 27.09598057-13.75058554 12.14406352c-28.34779907 25.03507564-61.09055557 53.36604571-95.75699594 83.36049747-105.15016565 90.98014973-224.32924255 194.10047937-286.81531038 261.92651757-28.60411765 31.01584245-35.07551447 51.13685081-35.46775958 62.55726743-0.28479842 8.26692141 2.48162987 14.97780781 8.70447535 21.1203919 0.32751819 0.32234003 0.64468005 0.62655653 0.95536924 0.91394403l0.34175811 0.31975095 0.32622365 0.33399087c0.35599803 0.36505979 0.73529774 0.74824311 1.13789914 1.14566637 7.42806061 7.33226477 30.03069883 29.64233733 84.65891935-22.89132025 64.59098706-62.16631689 164.82449635-178.05597203 253.2582893-280.30248833 30.90451216-35.73313991 60.09505565-69.4830472 86.09974044-99.02441056l15.36358021-17.45296498 14.43410173 18.22968795c64.27511973 81.1701387 222.83146177 280.22869965 306.725309 375.2853504 2.95154725 3.3450869 5.93675251 6.50893843 8.86758716 9.40223147 17.43484144 17.20959179 34.33115497 26.19368738 48.8636416 25.98008856 12.15700891-0.17735173 21.06861037-6.87270368 26.40340258-12.45734178l0.93077301-0.97349279 1.05634323-0.83627172c0.22524965-0.18770805 22.41493017-22.62076176-17.83744284-76.02046546-21.06084315-28.01639728-46.76001691-56.75126329-87.29977742-97.48520455l-133.43064873-129.36450402c-4.63833063-4.44285535-47.27135952-45.74250983-130.25255727-126.17993986l-13.67161869-13.25089376 12.98033525-13.9292318c20.88866955-22.41493017 34.79330512-35.8612992 43.75927719-42.32104517 27.1581184-19.54882243 72.23264649-7.63130311 102.05751373 0.25502403 6.39760814 1.69196151 12.4405128 3.28942175 15.69109839 3.8150043l1.50554801 0.30551103c45.37486096 11.07348037 89.82153797-11.92917017 132.103747-68.37233335 27.19436547-36.3182712 54.68906382-78.71698868 81.27887992-119.71889936 6.88564907-10.62039198 13.65996784-21.06343221 20.3359017-31.26827742L741.00511478 458.55628199l-75.94797131-74.41135438 250.06595792-253.73209031-15.36358021-15.09819987L649.71686495 369.01436429l-72.7168038-71.28245539L780.26716603 91.4834824c-9.26759949 6.34712115-18.72937971 12.78097635-28.33873732 19.31451101-40.39347769 27.4623349-82.16046048 55.86062096-117.84958608 83.82135308-55.54087001 43.47447877-77.58685677 88.39236773-65.53470547 133.5109101l0.33916903 1.51202071c0.57606953 3.14054985 2.07255577 8.65269381 3.65707061 14.48976687 7.96788306 29.34329901 20.00838352 73.68900204 0.96831463 101.42836812-6.37430645 9.25853772-19.86598432 23.4104301-42.4776843 44.55930184l-13.50332871 12.63080992-13.27548997-12.8702995c-158.67932318-153.82998282-373.98433943-362.61958795-423.25187698-410.39452286-9.41258777 7.82418931-21.05954861 25.40790267-11.84631974 62.32425054 8.67987911 34.77259251 8.67987911 34.77259251 23.72370838 64.09388438 1.43823202 2.80526444 3.00591787 5.8616693 4.72118107 9.21840703 12.38873125 24.24670183 13.37516942 25.47651318 25.47521865 40.53199328 5.58204903 6.94519783 13.22629751 16.45746505 24.89138189 31.78220911 26.37492275 34.65220045 36.73252347 45.27388697 51.06824027 59.97336904 4.04413757 4.14640608 8.22549618 8.43391683 13.17451599 13.66385146 2.5165824 2.65639253 4.96067067 5.25582539 7.34779924 7.79441493 6.74066078 7.16915295 13.10849454 13.93958811 19.42066314 20.17149534 12.82887427 12.66317337 24.02145217 21.63432359 37.42380689 29.99704083 19.50221906 12.19713959 42.23819472 13.25477737 66.3101339 14.37584752 25.84545659 1.20262605 52.56990467 2.44667733 78.60565839 16.70213277l2.29651089 1.25699666L471.55991893 497.77302439z" p-id="24343"></path></svg>