<?xml version="1.0" standalone="no"?><!DOCTYPE svg PUBLIC "-//W3C//DTD SVG 1.1//EN" "http://www.w3.org/Graphics/SVG/1.1/DTD/svg11.dtd"><svg t="1533176076836" class="icon" style="" viewBox="0 0 1024 1024" version="1.1" xmlns="http://www.w3.org/2000/svg" p-id="23582" xmlns:xlink="http://www.w3.org/1999/xlink" width="200" height="200"><defs><style type="text/css"></style></defs><path d="M884.82702222 872.39945482v-155.3445926c0-37.28270222 24.85513482-62.13783703 62.13783703-62.13783704s62.13783703 24.85513482 62.13783705 62.13783704v186.41351111c0 49.71026963-37.28270222 93.20675555-86.99297185 93.20675556H101.89027555c-49.71026963 0-86.99297185-43.49648592-86.99297185-93.20675556v-186.41351111c0-37.28270222 24.85513482-62.13783703 62.13783705-62.13783704s62.13783703 24.85513482 62.13783703 62.13783704v155.3445926h745.65404444zM449.86216297 232.37973333L375.29675852 306.94513778c-24.85513482 24.85513482-62.13783703 24.85513482-86.99297185 0-24.85513482-18.64135111-24.85513482-62.13783703 0-86.99297186l173.9859437-173.9859437c18.64135111-18.64135111 43.49648592-24.85513482 62.13783704-18.64135111 12.42756741 0 24.85513482 6.2137837 31.06891851 18.64135111l173.98594371 173.9859437c24.85513482 24.85513482 24.85513482 62.13783703 0 86.99297186-24.85513482 24.85513482-62.13783703 24.85513482-86.99297185 0l-68.35162075-62.13783703v403.89594073c0 37.28270222-24.85513482 62.13783703-62.13783703 62.13783704s-62.13783703-24.85513482-62.13783703-62.13783704V232.37973333z" fill="#000000" p-id="23583"></path></svg>