<?xml version="1.0" standalone="no"?><!DOCTYPE svg PUBLIC "-//W3C//DTD SVG 1.1//EN" "http://www.w3.org/Graphics/SVG/1.1/DTD/svg11.dtd"><svg t="1538037813929" class="icon" style="" viewBox="0 0 1024 1024" version="1.1" xmlns="http://www.w3.org/2000/svg" p-id="24982" xmlns:xlink="http://www.w3.org/1999/xlink" width="200" height="200"><defs><style type="text/css"></style></defs><path d="M224.256 917.39022222c-2.16177778 0.79644445-4.77866667 1.59288889-7.73688889 2.27555556m101.03466667-0.56888889M499.93955555 922.05511111" p-id="24983"></path><path d="M439.296 330.41066667c-13.42577778-13.42577778-28.10311111-25.14488889-43.69066667-35.04355556 25.71377778-30.94755555 41.18755555-70.656 41.18755556-113.89155556 0-98.53155555-80.09955555-178.63111111-178.63111111-178.6311111s-178.63111111 80.09955555-178.63111111 178.6311111c0 43.46311111 15.58755555 83.28533333 41.41511111 114.2328889-15.47377778 9.89866667-29.92355555 21.504-43.12177778 34.816-48.24177778 48.24177778-74.86577778 112.41244445-74.86577778 180.79288888 0 42.66666667 10.80888889 73.15911111 32.99555556 93.07022222 17.06666667 15.36 39.936 23.552 70.08711111 25.03111112 22.30044445 1.024 47.104-1.47911111 73.38666666-4.20977778 25.48622222-2.61688889 51.76888889-5.34755555 79.18933334-5.34755556s53.81688889 2.73066667 79.18933333 5.34755556c22.07288889 2.27555555 43.12177778 4.43733333 62.57777778 4.43733333 3.64088889 0 7.28177778-0.11377778 10.80888889-0.22755555 30.03733333-1.47911111 53.02044445-9.55733333 70.08711111-25.03111112 22.18666667-20.02488889 32.99555555-50.51733333 32.99555555-93.07022222-0.11377778-68.49422222-26.73777778-132.66488889-74.97955555-180.90666666z m-181.248-254.86222222c58.368 0 105.81333333 47.44533333 105.81333333 105.81333333s-47.44533333 105.81333333-105.81333333 105.81333333-105.81333333-47.44533333-105.81333333-105.81333333 47.55911111-105.81333333 105.81333333-105.81333333zM432.35555555 550.22933333c-11.37777778 10.24-49.94844445 6.25777778-87.26755555 2.50311112-25.94133333-2.61688889-55.40977778-5.68888889-86.69866667-5.6888889s-60.64355555 3.072-86.69866666 5.6888889c-37.31911111 3.86844445-75.88977778 7.73688889-87.26755556-2.50311112-5.68888889-5.12-8.87466667-19.34222222-8.87466666-39.02577778 0-74.41066667 44.71466667-138.58133333 108.65777777-167.02577777 22.528 10.24 47.44533333 15.92888889 73.728 15.92888889 26.39644445 0 51.54133333-5.80266667 74.06933333-16.15644445 64.17066667 28.44444445 109.11288889 92.72888889 109.1128889 167.25333333 0.22755555 19.68355555-3.072 33.90577778-8.7608889 39.02577778zM947.2 722.60266667c-13.42577778-13.42577778-28.10311111-25.14488889-43.69066667-35.04355556 25.71377778-30.94755555 41.18755555-70.656 41.18755556-113.89155556 0-98.53155555-80.09955555-178.63111111-178.63111111-178.6311111s-178.63111111 80.09955555-178.63111111 178.6311111c0 43.46311111 15.58755555 83.28533333 41.41511111 114.2328889-15.47377778 9.89866667-29.92355555 21.504-43.12177778 34.816C537.37244445 770.95822222 510.86222222 835.12888889 510.86222222 903.39555555c0 42.66666667 10.80888889 73.15911111 32.99555556 93.07022223 17.06666667 15.36 39.936 23.552 70.08711111 25.03111111 22.30044445 1.024 47.104-1.47911111 73.38666666-4.20977778 25.48622222-2.61688889 51.76888889-5.34755555 79.18933334-5.34755556s53.81688889 2.73066667 79.18933333 5.34755556c22.07288889 2.27555555 43.12177778 4.43733333 62.57777778 4.43733334 3.64088889 0 7.28177778-0.11377778 10.80888889-0.22755556 30.03733333-1.47911111 53.02044445-9.55733333 70.08711111-25.03111111 22.18666667-20.02488889 32.99555555-50.51733333 32.99555555-93.07022223-0.11377778-68.26666667-26.73777778-132.43733333-74.97955555-180.79288888z m-181.13422222-254.86222222c58.368 0 105.81333333 47.44533333 105.81333333 105.81333333s-47.44533333 105.81333333-105.81333333 105.81333333-105.81333333-47.44533333-105.81333333-105.81333333 47.44533333-105.81333333 105.81333333-105.81333333z m174.19377777 474.68088888c-11.37777778 10.24-49.94844445 6.25777778-87.26755555 2.50311112-25.94133333-2.61688889-55.40977778-5.68888889-86.69866667-5.6888889s-60.64355555 3.072-86.69866666 5.6888889c-37.31911111 3.86844445-75.88977778 7.73688889-87.26755556-2.50311112-5.68888889-5.12-8.87466667-19.34222222-8.87466666-39.02577778 0-74.41066667 44.71466667-138.58133333 108.65777777-167.02577777 22.528 10.24 47.44533333 15.92888889 73.728 15.92888889 26.39644445 0 51.54133333-5.80266667 74.06933333-16.15644445 64.17066667 28.44444445 109.11288889 92.72888889 109.1128889 167.25333333 0.22755555 19.68355555-3.072 33.90577778-8.7608889 39.02577778zM887.808 144.384c-17.52177778-9.89866667-39.70844445-3.75466667-49.60711111 13.65333333l-30.15111111 53.02044445c-4.20977778-5.23377778-8.64711111-10.46755555-13.19822223-15.47377778-32.768-36.29511111-71.56622222-65.536-115.37066666-86.81244445-45.39733333-22.07288889-94.09422222-34.58844445-144.83911111-37.20533333-0.45511111 0-0.91022222 0-1.25155556-0.11377777-20.02488889-1.024-36.97777778 14.44977778-38.00177777 34.47466666-1.024 20.13866667 14.56355555 37.31911111 34.70222222 38.22933334h0.79644444c106.83733333 5.57511111 197.97333333 65.99111111 247.69422222 152.46222222 6.25777778 10.80888889 17.408 17.74933333 29.80977778 18.432h1.25155556c13.312 0.68266667 26.51022222-6.03022222 33.56444444-18.432l58.368-102.74133334c9.78488889-17.408 3.64088889-39.59466667-13.76711111-49.49333333zM409.6 903.62311111c-0.22755555 0-0.45511111-0.11377778-0.79644445-0.11377778-105.69955555-16.72533333-190.00888889-86.35733333-230.4-177.60711111-5.00622222-11.37777778-15.36-19.56977778-27.648-21.504h-0.22755555c-2.27555555-0.34133333-4.43733333-0.45511111-6.59911111-0.45511111-13.76711111-0.45511111-27.19288889 6.94044445-33.792 20.13866667l-52.90666667 105.69955555c-8.98844445 17.97688889-1.70666667 39.82222222 16.27022223 48.81066667 5.23377778 2.61688889 10.80888889 3.86844445 16.27022222 3.86844445 13.312 0 26.16888889-7.39555555 32.54044444-20.13866667l23.09688889-46.19377778c2.048 2.95822222 3.98222222 5.80266667 6.144 8.64711111 28.78577778 39.59466667 64.28444445 72.704 105.58577778 98.41777778 42.78044445 26.73777778 89.99822222 44.25955555 140.17422222 52.224 0.45511111 0.11377778 0.79644445 0.11377778 1.25155555 0.22755556 19.79733333 3.072 38.22933333-10.58133333 41.41511112-30.2648889 3.29955555-20.02488889-10.46755555-38.68444445-30.37866667-41.75644444z" p-id="24984"></path></svg>