<?xml version="1.0" standalone="no"?><!DOCTYPE svg PUBLIC "-//W3C//DTD SVG 1.1//EN" "http://www.w3.org/Graphics/SVG/1.1/DTD/svg11.dtd"><svg t="1533116421461" class="icon" style="" viewBox="0 0 1024 1024" version="1.1" xmlns="http://www.w3.org/2000/svg" p-id="838" xmlns:xlink="http://www.w3.org/1999/xlink" width="200" height="200"><defs><style type="text/css"></style></defs><path d="M886.49142841 574.41523826v312.07619015q0 16.90412715-12.35301604 29.25714318t-29.25714204 12.35301604H595.2203173v-249.66095304H428.7796827v249.66095304H179.11872967q-16.90412715 0-29.25714204-12.35301604t-12.35301604-29.25714318V574.41523826q0-0.65015922 0.32507904-1.95047652t0.32507904-1.95047651l373.84127033-308.17523712 373.84127033 308.17523712q0.65015922 1.3003173 0.65015808 3.90095303z m144.98539748-44.86095303l-40.30984192 48.11174684q-5.20127033 5.85142841-13.65333334 7.15174571h-1.95047652q-8.45206301 0-13.65333333-4.55111111L512 205.12507904l-449.90984078 375.14158763q-7.80190493 5.20127033-15.60380985 4.55111111-8.45206301-1.3003173-13.65333334-7.15174571l-40.30984192-48.11174684q-5.20127033-6.50158763-4.5511111-15.27872968T-4.87619015 500.29714318l467.46412714-389.44508017q20.80507904-16.90412715 49.41206301-16.90412602t49.41206301 16.90412602l158.6387308 132.63238144V116.70349255q0-9.10222222 5.85142841-14.95365177t14.95365063-5.85142841h124.83047652q9.10222222 0 14.95365063 5.85142841t5.85142841 14.95365177v265.26476174l142.38476174 118.32888889q6.50158763 5.20127033 7.15174684 13.97841237t-4.5511111 15.27872968z" p-id="839"></path></svg>