<?xml version="1.0" standalone="no"?><!DOCTYPE svg PUBLIC "-//W3C//DTD SVG 1.1//EN" "http://www.w3.org/Graphics/SVG/1.1/DTD/svg11.dtd"><svg t="1535102654131" class="icon" style="" viewBox="0 0 1024 1024" version="1.1" xmlns="http://www.w3.org/2000/svg" p-id="24457" xmlns:xlink="http://www.w3.org/1999/xlink" width="200" height="200"><defs><style type="text/css"></style></defs><path d="M953.18243555 866.07416889L149.25027555 866.07416889c-62.65969778 0-113.62417778-38.87786667-113.62417777-86.68728889L35.62609778 175.50449778c0-9.59146667-7.76192-17.35111111-17.33632-17.35111111-9.59146667 0-17.35338667 7.75964445-17.35338667 17.35111111l0 603.88238222c0 66.92408889 66.54293333 121.36106667 148.31502222 121.36106667l803.93216 0c9.59146667 0 17.35111111-7.76533333 17.35111112-17.3568S962.77390222 866.07416889 953.18243555 866.07416889zM981.88288 604.86314667c-5.53528889 0-10.78044445 1.20604445-15.50222222 3.35644444l-209.6128-149.71448889c0.11377778-1.18328889 0.17066667-2.38023111 0.17066667-3.59537777 0-20.71893333-16.76515555-37.48636445-37.48977778-37.48636445-20.71893333 0-37.48977778 16.76515555-37.48977778 37.48636445 0 1.21514667 0.06826667 2.41208889 0.17635556 3.59537777L472.52935111 608.21959111c-4.72405333-2.1504-9.97262222-3.35644445-15.50791111-3.35644444-4.12785778 0-8.09187555 0.67697778-11.80672 1.91146666L156.33863111 350.00775111c0.50062222-2.44280889 0.76231111-4.97208889 0.76231111-7.56053333 0-20.72120889-16.78449778-37.48977778-37.48977777-37.48977778s-37.48977778 16.76515555-37.48977778 37.48977778c0 20.72120889 16.78449778 37.48636445 37.48977778 37.48636444 4.12672 0 8.09528889-0.67356445 11.80672-1.90577777l288.8749511 256.77027555c-0.49834667 2.43484445-0.75889778 4.9664-0.75889777 7.55484445 0 20.71893333 16.78449778 37.48977778 37.48977777 37.48977777 20.72120889 0 37.48977778-16.77084445 37.48977778-37.48977777 0-1.21173333-0.06257778-2.41208889-0.17635555-3.59537778l209.60938667-149.71107556c4.72746667 2.14812445 9.97262222 3.35416889 15.5079111 3.35416889s10.78044445-1.20604445 15.50222223-3.35416889l209.61166222 149.71107556c-0.11377778 1.18328889-0.17635555 2.38364445-0.17635555 3.59537778 0 20.71893333 16.76515555 37.48977778 37.48977777 37.48977777s37.49546667-16.77084445 37.49546667-37.48977777S1002.60750222 604.86314667 981.88288 604.86314667z" p-id="24458"></path><path d="M749.47916231 99.57758293l23.89588196 0.54758969 113.32193848 0 25.80662045-0.54758969-0.6815744 23.07449742 0 199.88771272c0 6.82739485-0.3670016 11.19646151-1.09517938 13.1072s-4.04866845 5.09724445-9.96729742 9.55951786-21.48415715 7.2351744-46.69658453 8.33035378c-0.18058809-3.73409565-0.57089138-7.50896925-1.15925902-11.33044622s-1.98064355-7.96335218-4.1651769-12.4256256l-6.14582044-12.83340516c13.56158293 1.18256071 22.18903325 1.43305387 25.87070009 0.75147947s5.98270862-1.68354702 6.89729991-3.00591787 1.3631488-4.6661632 1.3631488-10.03720248L876.72385991 261.914624l-93.80094862 0c-1.7301504 7.73616071-3.79817529 16.11311787-6.20990009 25.12504605s-6.85069653 18.83941547-13.31108978 29.4941127-13.60818631 19.20641707-21.43755377 25.66681032l-11.19646152 9.69350258c-3.27971271-4.36906667-6.60020338-8.51094187-9.96729742-12.4256256s-9.14591289-8.55754525-17.34228196-13.92858454c4.09527182-2.55153493 9.94399573-6.57690169 17.54617174-12.08192569s14.13247431-15.42571805 19.59089493-29.76208213 8.66822827-33.11169991 9.62359751-56.32018204 1.33984711-39.6886016 1.15925902-49.42288214l-0.95536924-58.84841529L749.47916231 99.57758293zM784.43169565 231.19717262l92.29798968 0 0-31.13105635-91.34262044 0L784.43169565 231.19717262zM785.38706489 168.39329565l91.34262044 0 0-36.18169743-91.34262044 0L785.38706489 168.39329565z" p-id="24459"></path></svg>