<?xml version="1.0" standalone="no"?><!DOCTYPE svg PUBLIC "-//W3C//DTD SVG 1.1//EN" "http://www.w3.org/Graphics/SVG/1.1/DTD/svg11.dtd"><svg t="1537499702420" class="icon" style="" viewBox="0 0 1024 1024" version="1.1" xmlns="http://www.w3.org/2000/svg" p-id="24430" xmlns:xlink="http://www.w3.org/1999/xlink" width="200" height="200"><defs><style type="text/css"></style></defs><path d="M418.47466667 29.24088889H96.93866667c-37.66044445 0-68.26666667 30.60622222-68.26666667 68.26666666v321.536c0 37.66044445 30.60622222 68.26666667 68.26666667 68.26666667h321.536c37.66044445 0 68.26666667-30.60622222 68.26666666-68.26666667V97.50755555c0-37.66044445-30.60622222-68.26666667-68.26666666-68.26666666z m0 389.80266666H96.93866667V97.62133333s0.11377778-0.11377778 0-0.11377778h321.42222222s0.11377778 0.11377778 0.11377778 0v321.536c0.11377778 0 0 0 0 0zM927.06133333 29.24088889H605.52533333c-37.66044445 0-68.26666667 30.60622222-68.26666666 68.26666666v321.536c0 37.66044445 30.60622222 68.26666667 68.26666666 68.26666667h321.536c37.66044445 0 68.26666667-30.60622222 68.26666667-68.26666667V97.50755555c0-37.66044445-30.60622222-68.26666667-68.26666667-68.26666666z m0 389.80266666H605.52533333V97.62133333s0.11377778-0.11377778 0-0.11377778h321.42222222s0.11377778 0.11377778 0.11377778 0v321.536s-0.11377778 0 0 0zM418.47466667 536.68977778H96.93866667c-37.66044445 0-68.26666667 30.60622222-68.26666667 68.26666667v321.536c0 37.66044445 30.60622222 68.26666667 68.26666667 68.26666666h321.536c37.66044445 0 68.26666667-30.60622222 68.26666666-68.26666666V604.95644445c0-37.66044445-30.60622222-68.26666667-68.26666666-68.26666667z m0 389.80266667H96.93866667V605.07022222s0.11377778-0.11377778 0-0.11377777h321.42222222s0.11377778 0.11377778 0.11377778 0v321.536c0.11377778-0.11377778 0 0 0 0zM927.06133333 536.68977778H605.52533333c-37.66044445 0-68.26666667 30.60622222-68.26666666 68.26666667v321.536c0 37.66044445 30.60622222 68.26666667 68.26666666 68.26666666h321.536c37.66044445 0 68.26666667-30.60622222 68.26666667-68.26666666V604.95644445c0-37.66044445-30.60622222-68.26666667-68.26666667-68.26666667z m0 389.80266667H605.52533333V605.07022222s0.11377778-0.11377778 0-0.11377777h321.42222222s0.11377778 0.11377778 0.11377778 0v321.536c0-0.11377778-0.11377778 0 0 0z" p-id="24431"></path></svg>