<?xml version="1.0" standalone="no"?><!DOCTYPE svg PUBLIC "-//W3C//DTD SVG 1.1//EN" "http://www.w3.org/Graphics/SVG/1.1/DTD/svg11.dtd"><svg t="1533805816614" class="icon" style="" viewBox="0 0 1024 1024" version="1.1" xmlns="http://www.w3.org/2000/svg" p-id="24129" xmlns:xlink="http://www.w3.org/1999/xlink" width="200" height="200"><defs><style type="text/css"></style></defs><path d="M818.05603271 406.55985778H358.30788551V236.24781369c0-56.40756338 68.6292992-119.17648782 153.21442987-119.17648782 84.61425778 0 153.32511289 62.76892445 153.32511289 119.17648782v51.11808h0.60001848a59.50086258 59.50086258 0 0 0 58.90666952 51.08312746c30.08830578 0 54.86382649-22.19485867 59.01152711-51.08312746h0.67574897v-51.11225458c0-131.65454222-122.06007182-238.3937536-272.51325155-238.3937536-150.42987805 0-272.45499733 106.73921138-272.45499733 238.3937536V406.55985778h-34.08454542c-56.37843627 0-102.11965155 45.74704071-102.11965156 102.16042951v408.71162311c0 56.4133888 45.74121529 102.14295325 102.11965156 102.14295325h613.06743466c56.45416675 0 102.15460409-45.72956445 102.15460409-102.14295325v-408.71162311c0-56.4133888-45.70043733-102.16042951-102.15460409-102.16042951z m-255.40398649 377.19608889v46.58007608c0 29.2552704-22.89390933 52.95891342-51.12973084 52.95891343-28.16591645 0-51.09477831-23.70364302-51.09477831-52.95891343v-46.57425066c-40.23619129-18.85689173-68.13996373-59.36105245-68.13996374-106.30230471 0-64.98841031 53.43077262-117.68517973 119.23474205-117.68517973 65.87387449 0 119.23474205 52.69676942 119.23474204 117.68517973 0 46.93542685-27.83386738 87.44541298-68.1050112 106.30230471z" fill="#272636" p-id="24130"></path></svg>