<?xml version="1.0" standalone="no"?><!DOCTYPE svg PUBLIC "-//W3C//DTD SVG 1.1//EN" "http://www.w3.org/Graphics/SVG/1.1/DTD/svg11.dtd"><svg t="1533172797022" class="icon" style="" viewBox="0 0 1675 1024" version="1.1" xmlns="http://www.w3.org/2000/svg" p-id="23495" xmlns:xlink="http://www.w3.org/1999/xlink" width="327.1484375" height="200"><defs><style type="text/css"></style></defs><path d="M534.84215168 609.25434694c-41.62338066-0.04437514-83.24676134-0.02958278-124.88493435 0-22.29084469 0.01479235-33.14783062 10.9901113-33.16262299 33.44366038-0.02958278 32.64491951 0 65.28983711 0 100.22744611-3.00268196-3.65350889-4.45225164-5.33974461-5.8278653-7.08514594-81.97469028-104.84240398-163.89021308-209.72918311-246.04240191-314.43846361-3.93454817-5.0143302-2.72164266-7.73597285 0.59166133-11.96635075 76.96036007-98.27496153 153.8023871-196.65346562 230.67399693-295.00238504 6.34556875-8.12055282 12.76509541-16.16714775 20.5898166-26.06268662 0 31.19534793 1.0354069 60.05363513-0.28103931 88.79358925-1.41998689 30.94389141 12.11426848 41.62338066 40.97255376 41.53463041 203.67944407-0.65082692 407.35888818-0.28103931 611.0531246-0.54728623 9.05241906-0.01479235 12.38051543 1.37561367 12.09947613 11.53739757-0.84311786 29.52390452-0.42895513 59.09218421-0.23666416 88.6456734 0.11833303 17.46880353 11.93676988 29.30203273 29.27244802 29.61265292 11.12323479 0.20708137 22.24646957 0.0739579 33.36970434 0.04437511 21.62522542-0.0739579 32.61533674-11.15281757 32.6301272-33.01470716 0.02958278-52.74661545-0.75436763-105.50802327 0.38457999-158.23984825 0.45853788-21.43293447-14.48091393-34.13886432-33.6655341-34.07969688-206.85962463 0.56207859-413.71924926 0.29583165-620.57887389 0.54728623-7.94305424 0.01479235-9.91032928-1.9228999-9.8511618-9.8511618 0.36978764-55.60138158 0.23666416-111.21755552 0.17749668-166.818939-0.02958278-19.77628341-11.59656313-31.19534793-31.44680444-31.32847141-10.16178578-0.0739579-20.35315246 0.35499719-30.50014587-0.10354071-13.65258651-0.62124414-23.42979229 5.17703837-31.69826097 15.75298501-121.39413174 155.45903815-242.95097164 310.81453562-364.49301731 466.15524263-9.7772058 12.49884845-9.8807465 24.77582129-0.11833301 37.23029463 49.15227214 62.76048542 98.28975388 125.55055361 147.41244321 188.34062184 72.19748447 92.32876509 144.42455362 184.6279474 216.4889146 277.07504364 6.81889707 8.74179699 14.92465948 13.17925817 26.04789427 12.82426288 11.10844244-0.35499719 22.24646957-0.0739579 33.35491203-0.07395796 24.47999156-0.01479235 34.9523994-10.33928247 34.95239749-34.50865193 0.01479235-54.65472302 0.13312347-109.30944797-0.14791388-163.9641729-0.02958278-7.12952105 1.31644621-9.82157902 9.17075209-9.55533206 19.03670624 0.63603649 38.13257806 0.38457999 57.18407663 0.14791581 16.89193451-0.22187371 28.71037136-12.04031057 29.06536663-28.84349483 0.23666416-11.12323479 0.0739579-22.24646957 0.05916557-33.36970435-0.04437514-21.84709723-11.03448643-33.02949951-32.61533481-33.05908039z" p-id="23496"></path><path d="M1689.66170587 654.98977437c-33.31053879-42.48129088-66.66545082-84.93299709-99.91682211-127.45866119-88.03921973-112.57837685-176.07843946-225.14196324-263.96974336-337.83867312-7.01118803-8.99325349-15.176116-13.71175395-26.75788866-13.32717399-13.63779604 0.45853788-27.31996533 0.02958278-40.98734417 0.07395791-21.68439098 0.05916557-32.73366786 11.13802713-32.74846023 32.89637602-0.02958278 52.11057897-0.28103931 104.2063675 0.23666412 156.31694645 0.08874834 9.39262582-2.44060336 11.21198313-11.44864915 11.21198506-195.70680705-0.28103931-391.41361412 0.01479235-587.12041927-0.56207857-20.50106826-0.05916557-33.20699811 14.9690346-33.14783063 32.64491951 0.56207859 176.32989597 0.34020485 352.65979003 0.34020484 528.97489362 0 20.72294198 10.90136108 31.69826095 31.4911796 31.69826096h293.56760581c98.80745732 0 197.61491462 0.10354069 296.42237191-0.19229094 7.95784659-0.02958278 9.89553695 1.9524827 9.85116181 9.86595415-0.38457999 53.36785958-0.26624695 106.75051157-0.16270626 160.11837306 0.04437514 18.5633779 11.84801963 30.20431616 30.44098034 30.38181476 12.06989334 0.11833303 24.22853506-0.90228345 36.1948877 0.23666416 17.21734703 1.62706828 28.10391763-5.82786528 38.42840968-19.08108136 119.39727583-153.35863963 239.26787806-306.34749356 359.03494154-459.41030159 9.39262582-11.99593547 9.52574929-24.73144805 0.25145649-36.5498849z m-112.00150782 24.45040879c-83.69050878 106.69134599-167.15914387 213.56019058-250.6869445 320.3698677-1.50873714 1.9228999-3.19497099 3.71267632-6.3603592 7.36618521v-23.35583441c0-25.41185777 0.02958278-50.8385079-0.01479233-76.25036755-0.02958278-22.33521793-10.96052852-33.29574643-33.29574643-33.29574646-195.38139265-0.01479235-390.7627853-0.0739579-586.14417984 0.20708329-9.31866791 0.01479235-11.96635265-1.81935921-11.93676797-11.67052292 0.39937233-126.76345914 0.35499719-253.51212784 0.05916556-380.275587-0.01479235-8.7122142 2.21872965-10.79782037 10.84219554-10.78302995 195.07077055 0.26624695 390.12675072 0.20708137 585.19752124 0.19229098 25.04207013 0 35.29260427-10.19136857 35.30739469-35.10031335v-95.25748909l1.77498408-0.93186815c15.20569877 19.37691108 30.45577075 38.73903175 45.61709631 58.16031798 69.81604858 89.32608315 139.57292965 178.69654142 209.5516845 267.88950111 3.83100748 4.88120672 4.0232984 7.73597285 0.08874835 12.73551261z" p-id="23497"></path></svg>