<?xml version="1.0" standalone="no"?><!DOCTYPE svg PUBLIC "-//W3C//DTD SVG 1.1//EN" "http://www.w3.org/Graphics/SVG/1.1/DTD/svg11.dtd"><svg t="1535102122464" class="icon" style="" viewBox="0 0 1024 1024" version="1.1" xmlns="http://www.w3.org/2000/svg" p-id="24080" xmlns:xlink="http://www.w3.org/1999/xlink" width="200" height="200"><defs><style type="text/css"></style></defs><path d="M657.63555555 584.81777778a145.63555555 145.63555555 0 1 0 145.63555556-145.63555556c-39.17596445 0-74.49258667 15.65582222-100.77980444 40.85077333C665.28142222 412.53091555 594.42972445 366.36444445 512 366.36444445s-153.28142222 46.16647111-190.49130667 113.6685511A145.05301333 145.05301333 0 0 0 220.72888889 439.18222222a145.63555555 145.63555555 0 1 0 145.63555556 145.63555556 145.63555555 145.63555555 0 0 1 291.2711111 0z m145.63555556-72.23523556a72.23523555 72.23523555 0 1 1 0 144.47047111 72.23523555 72.23523555 0 0 1 0-144.47047111zM220.72888889 657.05301333a72.23523555 72.23523555 0 1 1 0-144.47047111 72.23523555 72.23523555 0 0 1 0 144.47047111zM512 293.54666667A145.63555555 145.63555555 0 1 0 511.92718222 2.20273778 145.63555555 145.63555555 0 0 0 512 293.54666667z m0-217.87079112a72.23523555 72.23523555 0 1 1 0 144.47047112 72.23523555 72.23523555 0 0 1 0-144.47047112zM220.72888889 803.27111111a218.45333333 218.45333333 0 0 0-218.45333334 218.45333334h72.81777778a145.63555555 145.63555555 0 0 1 291.27111112 0h72.81777777a218.45333333 218.45333333 0 0 0-218.45333333-218.45333334zM803.27111111 803.27111111a218.45333333 218.45333333 0 0 0-218.45333333 218.45333334h72.81777777a145.63555555 145.63555555 0 0 1 291.27111112 0h72.81777778a218.45333333 218.45333333 0 0 0-218.45333334-218.45333334z" fill="" p-id="24081"></path></svg>