<?xml version="1.0" standalone="no"?><!DOCTYPE svg PUBLIC "-//W3C//DTD SVG 1.1//EN" "http://www.w3.org/Graphics/SVG/1.1/DTD/svg11.dtd"><svg t="1534919185132" class="icon" style="" viewBox="0 0 1024 1024" version="1.1" xmlns="http://www.w3.org/2000/svg" p-id="24021" xmlns:xlink="http://www.w3.org/1999/xlink" width="200" height="200"><defs><style type="text/css"></style></defs><path d="M256.03000775 928.10158763h499.32190492v-249.66095304H256.03000775v249.66095304z m582.54222222 0h83.2203173V345.55936541q0-9.10222222-6.50158649-25.03111112t-13.00317525-22.43047651l-182.69460252-182.69460367q-6.50158763-6.50158763-22.10539748-13.00317411t-25.35619015-6.50158763v270.46603208q0 26.00634937-18.20444445 44.21079381t-44.21079381 18.20444444H235.22492871q-26.00634937 0-44.21079381-18.20444444t-18.20444445-44.21079381V95.89841237H89.58937315v832.20317526h83.2203173v-270.46603208q0-26.00634937 18.20444445-44.21079381t44.21079381-18.20444444h540.932063q26.00634937 0 44.21079382 18.20444444t18.20444444 44.21079381v270.46603208zM588.91127808 324.75428523V116.70349255q0-8.45206301-6.17650859-14.62857159T568.10619904 95.89841237H443.27572253q-8.45206301 0-14.6285716 6.17650859T422.47064349 116.70349255v208.05079268q0 8.45206301 6.17650744 14.62857159T443.27572253 345.55936541h124.83047651q8.45206301 0 14.62857045-6.17650859T588.91127808 324.75428523z m416.10158763 20.80508018v603.34730126q0 26.00634937-18.20444445 44.21079381t-44.21079381 18.20444445H68.78429411q-26.00634937 0-44.21079381-18.20444445t-18.20444444-44.21079381V75.09333333q0-26.00634937 18.20444444-44.21079381t44.21079381-18.20444445h603.34730127q26.00634937 0 57.21396793 13.00317526t49.41206414 31.20761856l182.04444444 182.04444444q18.20444445 18.20444445 31.20761856 49.41206301t13.00317526 57.21396907z" p-id="24022"></path></svg>