<?xml version="1.0" standalone="no"?><!DOCTYPE svg PUBLIC "-//W3C//DTD SVG 1.1//EN" "http://www.w3.org/Graphics/SVG/1.1/DTD/svg11.dtd"><svg t="1535102334708" class="icon" style="" viewBox="0 0 1024 1024" version="1.1" xmlns="http://www.w3.org/2000/svg" p-id="24255" xmlns:xlink="http://www.w3.org/1999/xlink" width="200" height="200"><defs><style type="text/css"></style></defs><path d="M320 128H192c-35.2 0-64 28.8-64 64v128c0 35.2 28.8 64 64 64h128c35.2 0 64-28.8 64-64V192c0-35.2-28.8-64-64-64zM704 384h128c35.2 0 64-28.8 64-64V192c0-35.2-28.8-64-64-64h-128c-35.2 0-64 28.8-64 64v128c0 35.2 28.8 64 64 64z m0-192h128v128h-128V192zM320 640H192c-35.2 0-64 28.8-64 64v128c0 35.2 28.8 64 64 64h128c35.2 0 64-28.8 64-64v-128c0-35.2-28.8-64-64-64z m0 192H192v-128h128v128zM832 640h-128c-35.2 0-64 28.8-64 64v128c0 35.2 28.8 64 64 64h128c35.2 0 64-28.8 64-64v-128c0-35.2-28.8-64-64-64z" p-id="24256"></path><path d="M896 512h-64c-85.504 0-165.824-33.28-226.304-93.696S512 277.504 512 192V128c0-70.4-57.6-128-128-128H128C57.6 0 0 57.6 0 128v256c0 70.4 57.6 128 128 128h64c85.504 0 165.824 33.28 226.304 93.696S512 746.496 512 832v64c0 70.4 57.6 128 128 128h256c70.4 0 128-57.6 128-128v-256c0-70.4-57.6-128-128-128z m64 384c0 16.96-6.72 32.96-18.88 45.12S912.96 960 896 960h-256c-16.96 0-32.96-6.72-45.12-18.88S576 912.96 576 896v-64a384 384 0 0 0-384-384H128c-16.96 0-32.96-6.72-45.12-18.88S64 400.896 64 384V128c0-16.96 6.72-32.96 18.88-45.12S111.04 64 128 64h256c16.96 0 32.96 6.72 45.12 18.88S448 111.04 448 128v64a384 384 0 0 0 384 384h64c16.96 0 32.96 6.72 45.12 18.88S960 623.04 960 640v256z" p-id="24257"></path></svg>