<?xml version="1.0" standalone="no"?><!DOCTYPE svg PUBLIC "-//W3C//DTD SVG 1.1//EN" "http://www.w3.org/Graphics/SVG/1.1/DTD/svg11.dtd"><svg t="1533115057286" class="icon" style="" viewBox="0 0 1024 1024" version="1.1" xmlns="http://www.w3.org/2000/svg" p-id="47044" xmlns:xlink="http://www.w3.org/1999/xlink" width="200" height="200"><defs><style type="text/css"></style></defs><path d="M585.142857 804.571429h365.714286v-73.142858h-365.714286v73.142858zM365.714286 512h585.142857V438.857143H365.714286v73.142857z m365.714285-292.571429h219.428572V146.285714h-219.428572v73.142857z m292.571429 475.428572v146.285714q0 14.857143-10.857143 25.714286t-25.714286 10.857143H36.571429q-14.857143 0-25.714286-10.857143t-10.857143-25.714286v-146.285714q0-14.857143 10.857143-25.714286t25.714286-10.857143h950.857142q14.857143 0 25.714286 10.857143t10.857143 25.714286z m0-292.571429v146.285715q0 14.857143-10.857143 25.714285t-25.714286 10.857143H36.571429q-14.857143 0-25.714286-10.857143T0 548.571429V402.285714q0-14.857143 10.857143-25.714285t25.714286-10.857143h950.857142q14.857143 0 25.714286 10.857143t10.857143 25.714285z m0-292.571428v146.285714q0 14.857143-10.857143 25.714286t-25.714286 10.857143H36.571429q-14.857143 0-25.714286-10.857143T0 256V109.714286q0-14.857143 10.857143-25.714286t25.714286-10.857143h950.857142q14.857143 0 25.714286 10.857143t10.857143 25.714286z" p-id="47045"></path></svg>