<?xml version="1.0" standalone="no"?><!DOCTYPE svg PUBLIC "-//W3C//DTD SVG 1.1//EN" "http://www.w3.org/Graphics/SVG/1.1/DTD/svg11.dtd"><svg t="1533116079171" class="icon" style="" viewBox="0 0 1024 1024" version="1.1" xmlns="http://www.w3.org/2000/svg" p-id="47061" xmlns:xlink="http://www.w3.org/1999/xlink" width="200" height="200"><defs><style type="text/css"></style></defs><path d="M292.571429 713.142857v109.714286q0 22.857143-16 38.857143t-38.857143 16H54.857143q-22.857143 0-38.857143-16t-16-38.857143v-109.714286q0-22.857143 16-38.857143t38.857143-16h182.857143q22.857143 0 38.857143 16t16 38.857143z m0-292.571428v109.714285q0 22.857143-16 38.857143t-38.857143 16H54.857143q-22.857143 0-38.857143-16T0 530.285714V420.571429q0-22.857143 16-38.857143t38.857143-16h182.857143q22.857143 0 38.857143 16t16 38.857143z m731.428571 292.571428v109.714286q0 22.857143-16 38.857143t-38.857143 16H420.571429q-22.857143 0-38.857143-16t-16-38.857143v-109.714286q0-22.857143 16-38.857143t38.857143-16h548.571428q22.857143 0 38.857143 16t16 38.857143zM292.571429 128v109.714286q0 22.857143-16 38.857143t-38.857143 16H54.857143q-22.857143 0-38.857143-16T0 237.714286V128q0-22.857143 16-38.857143t38.857143-16h182.857143q22.857143 0 38.857143 16t16 38.857143z m731.428571 292.571429v109.714285q0 22.857143-16 38.857143t-38.857143 16H420.571429q-22.857143 0-38.857143-16t-16-38.857143V420.571429q0-22.857143 16-38.857143t38.857143-16h548.571428q22.857143 0 38.857143 16t16 38.857143z m0-292.571429v109.714286q0 22.857143-16 38.857143t-38.857143 16H420.571429q-22.857143 0-38.857143-16t-16-38.857143V128q0-22.857143 16-38.857143t38.857143-16h548.571428q22.857143 0 38.857143 16t16 38.857143z" p-id="47062"></path></svg>