<?xml version="1.0" standalone="no"?><!DOCTYPE svg PUBLIC "-//W3C//DTD SVG 1.1//EN" "http://www.w3.org/Graphics/SVG/1.1/DTD/svg11.dtd"><svg t="1536718445460" class="icon" style="" viewBox="0 0 1024 1024" version="1.1" xmlns="http://www.w3.org/2000/svg" p-id="24318" xmlns:xlink="http://www.w3.org/1999/xlink" width="200" height="200"><defs><style type="text/css"></style></defs><path d="M966.30215414 376.09212283c3.08203671-3.08203671 5.3852792-6.66117613 6.99257793-10.4557267 0.01657008-0.04971027 0.04971027-0.08285045 0.06628036-0.11599064 0.67937369-1.60729872 1.12676611-3.26430771 1.54101836-4.93788678 0.11599063-0.46396251 0.3148317-0.89478485 0.39768216-1.37531746 0.41425225-2.10440141 0.6462335-4.24194301 0.6462335-6.37948461 0-0.04971027 0.01657008-0.09942053 0.01657008-0.16570089S975.96251653 352.54602512 975.96251653 352.49631485c-0.01657008-2.1375416-0.23198126-4.27508319-0.64623349-6.37948461-0.09942053-0.48053261-0.28169153-0.91135493-0.39768217-1.37531746-0.41425225-1.67357907-0.86164467-3.33058806-1.54101834-4.93788677-0.01657008-0.04971027-0.04971027-0.08285045-0.06628036-0.11599063-1.60729872-3.79455058-3.91054121-7.37368999-6.99257794-10.45572672l0 0L661.67762186 24.57423619c-12.89152992-12.89152992-33.98525435-12.89152992-46.86021418 0-12.89152992 12.89152992-12.89152992 33.98525435 0 46.86021418l248.07081555 248.07081553L81.16109312 319.5052659c-18.22709886 0-33.14017975 14.91308089-33.14017975 33.14017975s14.91308089 33.14017975 33.14017975 33.14017976l866.74826126 0L966.30215414 376.09212283z" p-id="24319"></path><path d="M57.69784586 647.90787717c-3.08203671 3.08203671-5.3852792 6.66117613-6.99257793 10.4557267-0.01657008 0.04971027-0.04971027 0.08285045-0.06628036 0.11599064-0.67937369 1.60729872-1.12676611 3.26430771-1.54101836 4.93788678-0.11599063 0.46396251-0.3148317 0.89478485-0.39768216 1.37531746-0.41425225 2.10440141-0.6462335 4.24194301-0.6462335 6.37948461 0 0.04971027-0.01657008 0.09942053-0.01657008 0.16570089S48.03748347 671.45397488 48.03748347 671.50368515c0.01657008 2.1375416 0.23198126 4.27508319 0.64623349 6.37948461 0.09942053 0.48053261 0.28169153 0.91135493 0.39768217 1.37531746 0.41425225 1.67357907 0.86164467 3.33058806 1.54101834 4.93788677 0.01657008 0.04971027 0.04971027 0.08285045 0.06628036 0.11599063 1.60729872 3.79455058 3.91054121 7.37368999 6.99257794 10.45572672l0 0 304.64110237 304.64110238c12.89152992 12.89152992 33.98525435 12.89152992 46.86021418 0 12.89152992-12.89152992 12.89152992-33.98525435 0-46.86021418L161.12834686 704.4947341l781.71056002 0c18.22709886 0 33.14017975-14.91308089 33.14017975-33.14017975s-14.91308089-33.14017975-33.14017975-33.14017976L76.09064562 638.21437459 57.69784586 647.90787717z" p-id="24320"></path></svg>