<?xml version="1.0" standalone="no"?><!DOCTYPE svg PUBLIC "-//W3C//DTD SVG 1.1//EN" "http://www.w3.org/Graphics/SVG/1.1/DTD/svg11.dtd"><svg t="1534919503666" class="icon" style="" viewBox="0 0 1024 1024" version="1.1" xmlns="http://www.w3.org/2000/svg" p-id="24259" xmlns:xlink="http://www.w3.org/1999/xlink" width="200" height="200"><defs><style type="text/css"></style></defs><path d="M768 841.142857q0-14.857143-10.857143-25.714286t-25.714286-10.857142-25.714285 10.857142-10.857143 25.714286 10.857143 25.714286 25.714285 10.857143 25.714286-10.857143 10.857143-25.714286z m146.285714 0q0-14.857143-10.857143-25.714286t-25.714285-10.857142-25.714286 10.857142-10.857143 25.714286 10.857143 25.714286 25.714286 10.857143 25.714285-10.857143 10.857143-25.714286z m73.142857-128v182.857143q0 22.857143-16 38.857143t-38.857142 16H91.428571q-22.857143 0-38.857142-16t-16-38.857143v-182.857143q0-22.857143 16-38.857143t38.857142-16h244q12 32 40.285715 52.571429t63.142857 20.571428h146.285714q34.857143 0 63.142857-20.571428t40.285715-52.571429h244q22.857143 0 38.857142 16t16 38.857143z m-185.714285-370.285714q-9.714286 22.857143-33.714286 22.857143h-146.285714v256q0 14.857143-10.857143 25.714285t-25.714286 10.857143H438.857143q-14.857143 0-25.714286-10.857143t-10.857143-25.714285V365.714286H256q-24 0-33.714286-22.857143-9.714286-22.285714 8-39.428572L486.285714 47.428571q10.285714-10.857143 25.714286-10.857142t25.714286 10.857142l256 256q17.714286 17.142857 8 39.428572z" p-id="24260"></path></svg>