<?xml version="1.0" standalone="no"?><!DOCTYPE svg PUBLIC "-//W3C//DTD SVG 1.1//EN" "http://www.w3.org/Graphics/SVG/1.1/DTD/svg11.dtd"><svg t="1533198618976" class="icon" style="" viewBox="0 0 1024 1024" version="1.1" xmlns="http://www.w3.org/2000/svg" p-id="51647" xmlns:xlink="http://www.w3.org/1999/xlink" width="200" height="200"><defs><style type="text/css"></style></defs><path d="M977.454545 1024 46.545455 1024C20.829091 1024 0 1003.147636 0 977.454545L0 46.545455C0 20.829091 20.829091 0 46.545455 0L977.454545 0C1003.170909 0 1024 20.829091 1024 46.545455L1024 977.454545C1024 1003.147636 1003.170909 1024 977.454545 1024ZM930.909091 139.636364C930.909091 113.92 910.08 93.090909 884.363636 93.090909L139.636364 93.090909C113.92 93.090909 93.090909 113.92 93.090909 139.636364L93.090909 279.272727 930.909091 279.272727 930.909091 139.636364ZM930.909091 372.363636 93.090909 372.363636 93.090909 884.363636C93.090909 910.056727 113.92 930.909091 139.636364 930.909091L884.363636 930.909091C910.08 930.909091 930.909091 910.056727 930.909091 884.363636L930.909091 372.363636ZM837.818182 907.636364 605.090909 907.636364C579.374545 907.636364 558.545455 886.807273 558.545455 861.090909L558.545455 721.454545C558.545455 695.738182 579.374545 674.909091 605.090909 674.909091L837.818182 674.909091C863.534545 674.909091 884.363636 695.738182 884.363636 721.454545L884.363636 861.090909C884.363636 886.807273 863.534545 907.636364 837.818182 907.636364ZM768 768 674.909091 768C662.062545 768 651.636364 778.426182 651.636364 791.272727 651.636364 804.119273 662.062545 814.545455 674.909091 814.545455L768 814.545455C780.846545 814.545455 791.272727 804.119273 791.272727 791.272727 791.272727 778.426182 780.846545 768 768 768ZM837.818182 628.363636 186.181818 628.363636C160.465455 628.363636 139.636364 607.534545 139.636364 581.818182L139.636364 442.181818C139.636364 416.465455 160.465455 395.636364 186.181818 395.636364L837.818182 395.636364C863.534545 395.636364 884.363636 416.465455 884.363636 442.181818L884.363636 581.818182C884.363636 607.534545 863.534545 628.363636 837.818182 628.363636ZM768 488.727273 256 488.727273C243.153455 488.727273 232.727273 499.153455 232.727273 512 232.727273 524.846545 243.153455 535.272727 256 535.272727L768 535.272727C780.846545 535.272727 791.272727 524.846545 791.272727 512 791.272727 499.153455 780.846545 488.727273 768 488.727273ZM186.181818 674.909091 418.909091 674.909091C444.625455 674.909091 465.454545 695.738182 465.454545 721.454545L465.454545 861.090909C465.454545 886.807273 444.625455 907.636364 418.909091 907.636364L186.181818 907.636364C160.465455 907.636364 139.636364 886.807273 139.636364 861.090909L139.636364 721.454545C139.636364 695.738182 160.465455 674.909091 186.181818 674.909091ZM256 814.545455 349.090909 814.545455C361.937455 814.545455 372.363636 804.119273 372.363636 791.272727 372.363636 778.426182 361.937455 768 349.090909 768L256 768C243.153455 768 232.727273 778.426182 232.727273 791.272727 232.727273 804.119273 243.153455 814.545455 256 814.545455ZM558.545455 139.636364C584.261818 139.636364 605.090909 160.465455 605.090909 186.181818 605.090909 211.874909 584.261818 232.727273 558.545455 232.727273 532.829091 232.727273 512 211.874909 512 186.181818 512 160.465455 532.829091 139.636364 558.545455 139.636364ZM698.181818 139.636364C723.898182 139.636364 744.727273 160.465455 744.727273 186.181818 744.727273 211.874909 723.898182 232.727273 698.181818 232.727273 672.465455 232.727273 651.636364 211.874909 651.636364 186.181818 651.636364 160.465455 672.465455 139.636364 698.181818 139.636364ZM837.818182 139.636364C863.534545 139.636364 884.363636 160.465455 884.363636 186.181818 884.363636 211.874909 863.534545 232.727273 837.818182 232.727273 812.101818 232.727273 791.272727 211.874909 791.272727 186.181818 791.272727 160.465455 812.101818 139.636364 837.818182 139.636364Z" p-id="51648"></path></svg>