<?xml version="1.0" standalone="no"?><!DOCTYPE svg PUBLIC "-//W3C//DTD SVG 1.1//EN" "http://www.w3.org/Graphics/SVG/1.1/DTD/svg11.dtd"><svg t="1533198612797" class="icon" style="" viewBox="0 0 1326 1024" version="1.1" xmlns="http://www.w3.org/2000/svg" p-id="51389" xmlns:xlink="http://www.w3.org/1999/xlink" width="258.984375" height="200"><defs><style type="text/css"></style></defs><path d="M722.789571 481.91673l421.614777 0 0 90.34246L722.789571 572.259191 722.789571 481.91673zM722.789571 331.286571l421.614777 0 0 90.378095L722.789571 421.664667 722.789571 331.286571zM722.789571 632.468492l421.614777 0 0 90.378095L722.789571 722.846588 722.789571 632.468492zM1204.677793 0.007127 120.475619 0.007127c-66.245911 0-120.468492 54.279597-120.468492 120.468492l0 783.055889c0 66.267292 54.222581 120.468492 120.468492 120.468492l1084.202174 0c66.210276 0 120.447111-54.2012 120.447111-120.468492L1325.124904 120.475619C1325.124904 54.286724 1270.880942 0.007127 1204.677793 0.007127zM1204.677793 903.531508 662.573143 903.531508 662.573143 120.475619l542.104651 0L1204.677793 903.531508z" p-id="51390"></path></svg>