<?xml version="1.0" standalone="no"?><!DOCTYPE svg PUBLIC "-//W3C//DTD SVG 1.1//EN" "http://www.w3.org/Graphics/SVG/1.1/DTD/svg11.dtd"><svg t="1533178890055" class="icon" style="" viewBox="0 0 1024 1024" version="1.1" xmlns="http://www.w3.org/2000/svg" p-id="23793" xmlns:xlink="http://www.w3.org/1999/xlink" width="200" height="200"><defs><style type="text/css"></style></defs><path d="M1008.71253333 405.44l-58.31893333 57.03573333-159.7184-158.42773333 58.32426667-57.03893333c17.73013333-17.73546667 45.62453333-20.27946667 60.82346666-5.07733334l105.21386667 102.68053334c13.95946667 15.18826667 11.41013333 43.0784-6.32533333 60.82666666l0 0 0 0 0 0 0 0zM762.8096 330.65066667l160.97813333 157.168-382.8 377.73013333c-1.2704 1.26506667-6.3648 6.34453333-13.94986666 7.60533333-1.25546667 0-1.25546667 0-2.54506667 1.26506667l-200.26773333 62.12906667c-5.072 1.2704-11.41226667 1.2704-15.2224-2.54506667-3.79306667-3.78986667-5.06346667-8.8704-2.5504-15.22026667l63.39413333-196.4768c0-1.2448 0-1.2448 1.27146667-2.53013333 1.2576-6.3552 6.33706667-13.94026667 8.8448-15.22026667l73.52853333-67.17866666-243.3376 0c-10.15146667 0-19.02186667-11.43466667-19.02186667-20.26986667 0-10.1696 8.8704-21.56053333 19.02186667-21.56053333l281.3888 0 271.264-264.89706667zM491.5456 852.8736l-98.88426667-97.58933333-26.62186666 82.39893333 41.83146666 41.82506667 83.6736-26.63466667zM757.7312 392.7648c-5.0752-5.06026667-15.22453333-5.06026667-20.28053333 0l-300.43413334 294.07146667c-6.33493333 5.06026667-6.33493333 15.20533333 0 20.2752 5.07733333 5.06986667 15.22666667 5.06986667 20.28693334 0l299.1456-294.064c6.36053333-5.07413333 6.36053333-13.94666667 1.28106666-20.2816l0 0 0 0 0 0 0 0zM89.71946667 966.9632c-10.12693333 0-20.2624-3.81013333-20.2624-13.94026667l0-801.09013333c-1.26506667-19.01653333 11.41226667-15.20213333 25.33973333-15.20213333l69.71413333 0 0 26.61653333c0 10.1472 11.40053333 19.01653333 22.81493334 19.01653333 10.15146667 0 22.832-8.8704 22.832-19.01653333l0-26.61653333 103.936 0 0 26.61653333c0 10.1472 11.39733333 19.01653333 22.81493333 19.01653333 10.15146667 0 22.832-8.8704 22.832-19.01653333l0-26.61653333 95.06453333 0 0 26.61653333c0 10.1472 11.40053333 19.01653333 22.82026667 19.01653333 10.16213333 0 22.82666667-8.8704 22.82666667-19.01653333l0-26.61653333 95.07093333 0 0 26.61653333c0 10.1472 11.41546667 19.01653333 22.82453333 19.01653333 10.14506667 0 22.82453333-8.8704 22.82453334-19.01653333l0-26.61653333 79.83893333 0c10.1504 0 16.4896 5.05493333 16.4896 15.20213333l0 131.82933333 58.32426667-57.0336 0-74.7936c0-41.8304-31.69493333-72.24426667-74.81386667-72.24426666l-81.1136 0 0-49.45173334c0-10.15146667-11.41013333-19.01653333-22.82986667-19.01653333-10.13546667 0-22.8096 8.86506667-22.8096 19.01653333l0 49.43466667-95.07093333 0 0-49.43466667c0-10.15146667-11.40053333-19.01653333-22.8352-19.01653333-10.1472 0-22.80533333 8.86506667-22.80533333 19.01653333l0 49.43466667-95.07413334 0 0-49.43466667c0-10.15146667-11.41226667-19.01653333-22.82666666-19.01653333-10.15253333 0-22.81493333 8.86506667-22.81493334 19.01653333l0 49.43466667-103.94346666 0 0-49.43466667c0-10.15146667-11.41013333-19.01653333-22.82666667-19.01653333-10.1504 0-22.81173333 8.86506667-22.81173333 19.01653333l0 49.43466667-68.45226667 0c-57.03573333 0-84.92053333 30.41173333-84.92053333 72.24426667l0 799.82186666c0 41.81013333 38.01706667 72.24853333 81.13066666 72.24853334l628.7104 0c43.09546667 0 74.78933333-30.43946667 74.78933334-72.24853334l0-276.33173333-58.3136 57.0336 0 220.53653333c0 10.16-6.34026667 13.9552-16.47466667 13.9552M587.86666667 296.44053333l-378.98026667 0c-10.1504 0-17.73546667 12.6624-17.73546667 21.5296 0 10.1472 7.60533333 21.54986667 17.73546667 21.54986667l378.98026667 0c10.16533333 0 17.7504-12.6816 17.7504-21.54986667 0-8.8672-7.6-21.5296-17.7504-21.5296l0 0 0 0 0 0 0 0zM587.86666667 442.1984l-378.98026667 0c-10.1504 0-17.73546667 12.6624-17.73546667 21.54453333 0 10.1504 7.60533333 21.5296 17.73546667 21.5296l378.98026667 0c10.16533333 0 17.7504-12.67733333 17.7504-21.5296 0-8.8832-7.6-21.54453333-17.7504-21.54453333l0 0 0 0 0 0 0 0z" p-id="23794"></path></svg>